<?xml version="1.0" encoding="UTF-8"?>
<svg xmlns="http://www.w3.org/2000/svg" viewBox="0 0 800 799.9">
  <defs>
    <style>
      .cls-1 {
        stroke-width: 3.71px;
      }

      .cls-1, .cls-2 {
        fill: none;
        stroke: #231f20;
        stroke-miterlimit: 10;
      }

      .cls-3 {
        fill: #fff;
      }

      .cls-2 {
        stroke-width: 3px;
      }

      .cls-4 {
        fill: #fbe149;
      }

      .cls-5 {
        fill: #f75362;
      }

      .cls-6 {
        fill: #d0e34d;
      }

      .cls-7 {
        fill: #45bbf4;
      }

      .cls-8 {
        fill: #231f20;
      }
    </style>
  </defs>
  <g id="bkg">
    <rect class="cls-3" width="800" height="799.9"/>
  </g>
  <g id="design">
    <g>
      <path class="cls-5" d="m142.59,89.89c-36.47,25.79-72.13,104-14.26,212.18,57.87,108.19,147.61,50.32,176.12,29.35,28.51-20.97,91.41-113.22,18.45-197.93-72.96-84.71-161.86-56.66-180.31-43.61Z"/>
      <path class="cls-8" d="m187.58,355.43c-32.7,0-59.93-9.85-78.28-28.69-23.81-24.45-31.45-61.99-22.71-111.57,8.89-50.36,34.02-87.02,74.71-108.97,39-21.03,79.91-21.6,95.69-20.87,23.75,1.1,47.89,9.16,67.99,22.67,20.43,13.74,35.29,32.26,41.83,52.16,9.88,30.04,4.24,63.54-16.32,96.89-14.59,23.66-36.5,46.42-61.72,64.09-24.71,17.31-51.03,28.74-74.12,32.19-9.37,1.4-18.41,2.09-27.08,2.09Zm61.78-267.26c-35.15,0-139.09,10.12-159.81,127.52-8.57,48.57-1.2,85.23,21.9,108.96,22.51,23.12,59.01,32.25,102.76,25.72,47.24-7.05,104.73-47.84,133.73-94.89,14-22.71,28.15-57.53,16.03-94.38-12.91-39.25-58.96-70.53-107.11-72.77-1.91-.09-4.45-.17-7.5-.17Z"/>
      <g>
        <g>
          <rect class="cls-8" x="306.58" y="111.41" width="3" height="47.39" transform="translate(-5.3 257.42) rotate(-45)"/>
          <rect class="cls-8" x="284.39" y="133.6" width="47.39" height="3" transform="translate(-5.3 257.42) rotate(-45)"/>
        </g>
        <g>
          <rect class="cls-8" x="122.78" y="292.9" width="3" height="28.44" transform="translate(-180.76 177.84) rotate(-45)"/>
          <rect class="cls-8" x="110.07" y="305.62" width="28.44" height="3" transform="translate(-180.76 177.84) rotate(-45)"/>
        </g>
        <polygon class="cls-8" points="101.81 151.36 86.62 136.16 88.74 134.04 101.81 147.12 114.89 134.04 117.01 136.16 101.81 151.36"/>
        <path class="cls-8" d="m259.49,327.04l-15.4-15.4,15.4-15.4,15.4,15.4-15.4,15.4Zm-11.16-15.4l11.16,11.16,11.16-11.16-11.16-11.16-11.16,11.16Z"/>
      </g>
    </g>
    <g>
      <path class="cls-7" d="m467.79,615.71c37.11,67.42,112.6,73.45,154.13,67.04,37.85-5.85,119.82-37.48,117.18-98.71-2.64-61.23-48.03-148.85-142.52-140.41-94.48,8.45-160.47,114.54-128.79,172.08Z"/>
      <path class="cls-8" d="m620.84,699.19c-7.92,0-15.87-1.05-23.77-3.16-32.2-8.62-66.28-27.13-91.17-49.52-22.26-20.03-48.61-53.36-47.71-98.43,1.65-82.29,119.27-111.83,164.46-116.27,30.5-3,72.12-.4,97.14,28.97,23.82,27.97,27.37,74.52,10.55,138.38h0c-10.06,38.2-32.52,69.79-61.62,86.68-15.27,8.86-31.51,13.35-47.89,13.36Zm20.78-265.35c-6.51,0-12.8.37-18.68.95-44.45,4.37-160.15,33.24-161.75,113.34-1.58,79.13,80.86,130.07,136.66,145,23.43,6.27,47.42,2.85,69.38-9.89,28.41-16.49,50.36-47.42,60.22-84.85h0c16.56-62.85,13.21-108.5-9.93-135.67-19.41-22.79-49.4-28.88-75.89-28.88Z"/>
      <g>
        <polygon class="cls-8" points="702.73 478.87 691.42 467.56 680.12 478.87 668.81 467.56 657.5 478.87 646.19 467.56 634.88 478.87 622.51 466.5 624.63 464.38 634.88 474.63 646.19 463.32 657.5 474.63 668.81 463.32 680.12 474.63 691.42 463.32 702.73 474.63 712.98 464.38 715.1 466.5 702.73 478.87"/>
        <polygon class="cls-8" points="702.73 494.08 691.42 482.77 680.12 494.08 668.81 482.77 657.5 494.08 646.19 482.77 634.88 494.08 622.51 481.71 624.63 479.59 634.88 489.84 646.19 478.53 657.5 489.84 668.81 478.53 680.12 489.84 691.42 478.53 702.73 489.84 712.98 479.59 715.1 481.71 702.73 494.08"/>
      </g>
      <path class="cls-8" d="m660.7,682.36c-6.33,0-11.49-5.15-11.49-11.49s5.15-11.49,11.49-11.49,11.49,5.15,11.49,11.49-5.15,11.49-11.49,11.49Zm0-19.97c-4.68,0-8.49,3.81-8.49,8.49s3.81,8.49,8.49,8.49,8.49-3.81,8.49-8.49-3.81-8.49-8.49-8.49Z"/>
      <path class="cls-8" d="m488.13,663.01l-15.4-15.4,15.4-15.4,15.4,15.4-15.4,15.4Zm-11.16-15.4l11.16,11.16,11.16-11.16-11.16-11.16-11.16,11.16Z"/>
      <g>
        <rect class="cls-8" x="503.03" y="484.97" width="3" height="28.43" transform="translate(-205.21 502.97) rotate(-45)"/>
        <rect class="cls-8" x="490.31" y="497.69" width="28.43" height="3" transform="translate(-205.21 502.97) rotate(-45)"/>
      </g>
    </g>
    <g>
      <path class="cls-4" d="m493.44,336.43c-47.37-48.85-19.22-244.91,104.06-244.93,113.66-.01,130.86,126.47,129.67,151.72-1.79,37.94-29.62,102.81-93.65,119.62-64.03,16.81-117.66-3.3-140.07-26.41Z"/>
      <path class="cls-2" d="m469.66,171.49c-15.48,37.87-8,104.06,62.43,151.28,70.44,47.23,150.31,18.77,180.1-15.21,30.16-34.41,50.43-124.07-60.03-172.89-110.46-48.83-164.89-6.26-182.5,36.82Z"/>
      <path class="cls-8" d="m497.06,345.22h-14.82l-7.41-12.83,7.41-12.83h14.82l7.41,12.83-7.41,12.83Zm-13.09-3h11.35l5.68-9.83-5.68-9.83h-11.35l-5.68,9.83,5.68,9.83Z"/>
      <path class="cls-8" d="m686.48,141c-6.96,0-12.63-5.66-12.63-12.63s5.66-12.63,12.63-12.63,12.63,5.66,12.63,12.63-5.66,12.63-12.63,12.63Zm0-22.25c-5.31,0-9.63,4.32-9.63,9.63s4.32,9.63,9.63,9.63,9.63-4.32,9.63-9.63-4.32-9.63-9.63-9.63Z"/>
      <g>
        <rect class="cls-8" x="506.28" y="132.38" width="3" height="28.44" transform="translate(45.07 402.01) rotate(-45)"/>
        <rect class="cls-8" x="493.57" y="145.1" width="28.44" height="3" transform="translate(45.06 401.99) rotate(-45)"/>
      </g>
    </g>
    <g>
      <path class="cls-6" d="m129.23,427.55c-70.44,33.37-62.85,173.22-32.44,219.67,24.87,37.98,123.11,77.69,167.76,69.52,42.61-7.8,96.39-63.03,95.47-144.59-.93-81.56-107.52-202.98-230.79-144.59Z"/>
      <path class="cls-1" d="m291.84,433.56c50.28,23.62,87.06,168.3,56.71,214.82-32.65,50.06-193.16,77.44-236.31,36.09-36.19-34.68-56.71-148.66-10.31-200.22,46.4-51.56,145.43-71.59,189.9-50.7Z"/>
      <path class="cls-8" d="m110.41,463.81l-24.56-12.05,29.81-23.93-5.25,35.99Zm-19.01-12.67l16.63,8.16,3.55-24.37-20.19,16.21Z"/>
      <path class="cls-8" d="m172.6,691.4l-23.08-24.27h26.93l-3.85,24.27Zm-16.09-21.27l14.08,14.8,2.35-14.8h-16.43Z"/>
      <path class="cls-8" d="m294.78,473.4l-15.4-15.4,15.4-15.4,15.4,15.4-15.4,15.4Zm-11.16-15.4l11.16,11.16,11.16-11.16-11.16-11.16-11.16,11.16Z"/>
    </g>
  </g>
</svg>